<?xml version="1.0" encoding="UTF-8"?>
<svg id="_레이어_1" data-name="레이어 1" xmlns="http://www.w3.org/2000/svg" viewBox="0 0 154.08 218.67">
  <defs>
    <style>
      .cls-1 {
        fill: #fff;
        fill-rule: evenodd;
      }
    </style>
  </defs>
  <path class="cls-1" d="M58.78,6.58l-.02.85-.89.19-1.15-.15-1.73.37-1.3.41-1.04.07-.33.46.37.63.78.17.74-.22.84-.37.87-.04,1.84.09,1.41.43,1.67.41,2.45,1.1.22.52-.26.41-1.15.41-.69.32-1.23.82-1.88,1-2.29,1.62-2.62,1.19-2.08,1.36-1.88.82-1.77.43-1.56.04-2.14.04-.82.22-.48,1-.37,1.08-.41.74-1.04,1.56-1,1.73-.67.85-.06.97.06,1.36v1.45l.89.8.78.41.93-.07,1.52-.41,1.71-.52,2.32-.93.93.04.22.58-.22.56-.78.41-2.36.88-1.77.52-.35.59-.06.63.58.52,1.23.15h1l1.26-.04,1.36-.32,1.97-1.04,1.3-.26,1.1-.22.84.28,1.23-.06,1.21.15,1,.58,1.56.15,2.04.63,1.1.15,1.71-.3,2.19.15.95.37.52.89-.11,1.15-.26,1.41-.52,1.62-.73,2.03-.74,2.23-.78,2.04-.52,1.41-1.78,2.77-2.14,2.71-1.93,2.66-2.45,2.45-2.25,1.9-1.43,1.52-.76,2.49-1.06,1.26-1.34.95-1.62,1.34-2.49,1.51-2.1,1.06-1.34,1.54-.95,1.23-.95.59-1.34.67-.86-.2-1.71-.78-1.91-1.23-2.79-1.23-3.14-1.64-1.62-1.23-2.01-1.62-2.21-1.82-2.38-.87-2.1-.37-2.68.56-1.9,1.06-1.64,1.15-.84,2.1-.58,1.62-.67,2.49-.76,1.51-.76,2.32-.11,2.77-.67,1.62-.76,2.58-.67,2.58-1.23,2.4-.67,2.38-.39,2.96-1.06,2.49-.67,1.43-.09,1.43-.09,2.4v4.2l-.48,1.73.28,1.52-.11,2.49.87,1.99.67.48,1.23-.39,1.15-1.04,1.65-1.99,1.43-2.29.56-1.91-.37-1.54-.48-1.91-.58-2.3-.56-2.4-.3-1.82v-1.71l.39-1.93.95-2.94.95-1.54.87-.78.67-1.04,1.23-.11.58-.37.87-.78.95-.84.87-1.15.37-1.34.3-1.15.09-1.54.28-1.34.67-.84.67-.19.87.28,1.23.67,1.34,1.54,1.43,2.1,1.62,1.9,1.73,1.54,1.54,1.23,1.51.67.48.95-.48.48-1.62-.37-2.29-.19-2.97-.58-2.86-.56-3.44-.11-2.01.11-1.54.95-1.62,1.43-1.34,2.29-1.04,2.6-.11,1.91.58,3.44,1.34,4.39.67,3.44.85,3.35.58,2.36.28,2.21.76,2.49.58,3.81.56,1.34,1.45,1.15,1.34,1.34,1.52,2.29,1.06,2.68,1.62,2.38,2.38,2.29,1.73,1.06,1.15.09.95-.28.58-1.34.65-1.15.39-1.62v-3.72l-.48-1.06c-.09,0-.09-.67-.09-.76l-.19-.67-.78-1.15-1.43-1.43-2.66-1.15-.97-.3-.17-1.62.09-1.04-1.82-2.1-1.15-2.68-.95-3.81-.78-3.53-1.32-2.77-.48-3.35.76-2.01,1.34-.76h1.04l1.54,1.34,2.21,1.34,2.29.84,5.54,2.68,2.68,1.54v1.43l2.47,1.43,3.16,1.06h6.6l-.47,1.23-.28.67.84,1.6,1.62,2.4,2.6,2.58,3.14,3.44,2.68,2.38,5.02,3.85,4.07,2.19,3.05,1.62,3.92,2.66,3.61,2.57,3.12,2.64,3.25,4.39.15,1.84.74,1.9,1.99,1.43,1.82.71,1.13-.15.89-.86,1.28-1.36.3-1.84,1.51-2.62.33-2.01.24-2.23.15-1.76.5-1.1,1.01-.5h.97l.07.74-.71.78-.63,1.69-.48,1.04v1.28l-.17,2.71-.39,1.36-1.19,2.05-1.6,2.64-1.6,2.88-.95,3.74-.48,3.92.48,4.37.62,2.55,1.52,3.35,1.93,3.98,1.52,3.12,2.08,3.27,2.47,3.03.48,1.04v.71l-.32.89-.87,1.43-1.36,1.9-2.79,3.59-2.79,3.03-2.55,2.79-1.1.65-2.25.87-1.34,1.28-.71,1.45-1.6,1.99-1.82,1.99-2.23,2.31-1.36,2.38-.8,2.4-.48,1.99.09,1.6.95,1.02h3.51l1.52-.15,1.58-.95,2.08-.95.33-.8h.72l1.1-.48,1.04-.97.56-3.81-.33-.8-.15-.8.56.15.63.17.65-.48,1.04-.65,1.1-1.43,1.36-1.93.72-1.75.15-1.43.89-.65,1.28-.71,1.04-.63.86-1.75,1.84-1.93,3.44-3.18,2.62-1.75,2.64-1.45.63-.63.24-.65.56-.71-.39-.95-.09-1.75-.35-1.65-.41-.95-.91-1.56-1.45-1.82-.71-1.36-.15-1.43v-1.92l.33-1.11.86-2.96.89-1.43.95-.56,1.75-1.1,2.08-1.78,2.79-2.38,1.91-1.99,1.93-2.23,1.99-2.25,1.43-2.53,1.19-2.16,1.13-2.47.8-2.73.24-2.53.15-1.92.65-.63.72-.17.62.41.56,1.34.15,1.84.26,1.75-.17,1.19-.15,1.84v3.92l.48,3.09.56.8.48-.07.24-.56-.33-1.28v-2.16l.65-1.82.3-2.64.33-1.84.41-.87h.48l.39.39.39,1.52.33,1.45-.15,2.3-.48,3.12-1.45,3.03-1.34,2.88-.8,2.47-.15,1.52.15,1.75.56,1.69h1.04l.54-.74-.3-.8-.24-1.43.95-1.28,1.1-1.51.74-1.43,1.75-2.79,1.43-2.55.63-2.79.56-3.68v-3.66l-.71-2.55-1.43-1.99-.17-.95.65-.32.8.39,1.04,1.28,1.28,2.31.54,2.71.32,3.59.8,2.49.09.06,1.1,2.47.72.26.32-.65-.08-.39-.54-1.84-.09-1.84.09-2.71.48-3.03v-1.52l-.17-1.28-1.28-2.55-1.1-1.84.39-.71,1.52-.32,2.08-.95,2.23-1.19,1.99-1.75,2.55-3.44,1.45-2.86,1.19-2.73.39-4.37.09-3.92-.62-4.85-.74-3.51-.62-3.59-.39-3.74.3-2.38.65-2.96,1.34-2.94,1.93-3.03.71-1.92.15-.95-.63-.87-.89-.41v1.37l-.71.8-1.28,1.9-.72.48-1.99,2.4-.8,1.28-.95,2.14-1.04.17-.95-.56-.56-2.55.15-2.94.65-2.73,1.58-2.55,3.2-4.78,1.91-3.9.24-2.73-.3-.87-.56.56-.95,2.38-1.45,2.4-2.14,1.75-2.47,2.38-3.68,4.31-.71-.07-.24-.73-.09-1.75.24-3.27,1.12-3.66,1.99-4.07,2.64-3.27,3.27-2.79.3-.65-.39-.3-1.67.86-1.36.89-2.31,1.99-2.88,2.55-2.06,2.79-2.01,3.66-1.1,2.97-.32,2.94-.15,3.98.95,4.15.96,3.59,1.84,5.65,1.19,6.78.71,5.17v2.79l-.3,2.94-.48,2.4-.89,2.71-3.36,4.22-3.42,3.12-4.39,2.47-4.22.24-.57-2.06-1.51-2.96-2.08-2.86-1.36-1.69-1.82-2.47-3.91-3.75-3.98-3.27-1.75-1.36-5.5-3.72-7.9-6.62-4.31-5.35-4.72-7.73-1.28-4.63.33-2.88.65-.56,1.67,1.12,2.64,1.28,2.15-.09,2.46,1.12,2.64,1.6,1.36,1.1,1.75,1.21,1.82.24.41-.8-.48-.09-.56.24-.89-.56-.78-1.19-1.12-1.84-2.17-1.99-2.14-.8-1.19-.24.24-.63h1.67l1.93.63,2.79,1.84,1.28.56.48-.65-.8-1.1-2.16-1.93-3.36-1.75-4.05-1.58-.8-.65.8-.56,1.82.89,3.35.56,3.6,1.43,1.9.95,3.36.48,2.4-.32,1.34-.63,1.84-1.12.8-.78.09-.56-.74.07-.71.73-2.38.78-2.08.32-1.75-.24-1.69-1.34-1.52-1.78-1.82-1.34-2.72-.56-2.62-.89-1.12-.71.09-.63,1.04.15h2.31l2.32-.15h2.38l1.28-.24,1.04.87,1.67.41h1.36l.62-.48-1.1-.32-1.37-.89-1.43-1.34-2.31-1.21-1.91-.24-1.75-.24-.65-.39,1.28-.71h2.08l1.6.48,1.58.8,2.55,1.1,2.55.09,1.36-.65.39-.87-1.04-.48-2.15-.09-1.84-.63-1.6-1.36-1.75-.89-2.32-.39-1.99-.72-.87-1.12.15-.56,1.28.26,1.6.48.95.71,1.36.15.15-.71-1.43-1.13-.41-1.02,1.93.3,1.82.95,2.31.26.89,1.67,2.38,1.43.13-.02.52-.22.63-.39-.3-.48-.89.06-.8-1.1-1.6-2.47-2.79-2.49-2.86-1.28-.8-.95-1.75-2.08-1.6-.87-.24-.8.71-.48,1.69.39,3.34.95,1.6.56,1.04,1.45,1.67.87h1.28l1.69.48,1.84-.33.72-.63-1.04-.89-1.51-.39-1.75-.24-1.04-.89-1.37-1.99-.32-1.28-1.75-1.58-1.91-1.21-2.17-1.34-2.38-2.23-.15-.65h.54l3.12,2.47,3.18,1.84,1.69,1.28,2.14,1.99,1.93,1.04,1.1.32.57-.89-.8-.3-1.67-1.51-.48-1.69-1.75-1.9-1.45-1.21-.72-1.82-2.46-3.68-3.36-2.94-.15-.95,1.19.15,1.69.87,2.7,1.12,2.79.15,2.08.97,2.23.39,1.91-.56-.15-.8-2.17-.48-1.9-.87-3.83-1.84-2.08-1.12-1.1-1.34.39-.48.56.39.87.32,1.12.09h1.84l1.58-.17,2.41-.15,1.84.71,1.91,1.36.8.24.09-.71-.65-.65-1.91-1.75-2.96-1.51-2.14-.24-4.07-.24-.95-1.13-2.08-2.08-2.31-1.58-.87-.8.71-.56,1.1.47,1.99,1.04,2.25.8,3.03.71h2.62l2.17,2.4,1.75,1.04.63-.65-2.38-3.5-3.75-2.71-3.12-.74-2.64-2.77-2.31-1.36-3.18-.8,1.75-1.52,3.12-1.04,2.32-.71.54-.71-.3-.56-1.28-.33-1.21-.24-9,.17-1.6-1.77-1.81-1.19-2.32-1.04-3.03-.48h-2.62l-.71-.95-2.47-2.64-2.96-2.71-1.82,3.03-.09.95.87,1.13.09.95-.63.56-2.01.15-3.66-1.04-3.59-.78-1.67.06-2.73.56.32.95,1.51-.06.63.11h0Z"/>
  <polygon class="cls-1" points="66.19 135.64 65.8 136.6 66.06 138.33 66.94 142.2 68.48 147.31 69.76 150.36 71.47 154.26 72.68 156.55 74.54 159.93 76.77 163.69 78.52 166.12 80 168.09 80.06 169.17 79.87 170.06 79.04 170.38 76.58 170.51 72.25 170.25 68.68 169.8 65.54 169.24 61.73 168.15 59.8 167.31 58.52 166.75 57.07 166.49 55.41 166.55 54.52 166.94 53.31 166.94 50.43 166.49 48.78 165.92 46.99 165.79 44.13 165.73 41.97 165.54 39.98 165.54 38.01 165.66 36.66 166.23 35.71 166.49 35.39 166.94 35.45 167.83 36.36 169.3 38.07 171.66 39.09 172.09 40.69 173.24 42.53 174.26 44.52 174.91 47.38 174.97 49.93 174.71 52.1 174.21 53.94 173.63 54.72 174.02 55.08 174.78 55.73 174.97 57.31 174.91 59.3 175.04 60.32 175.36 61.53 175.04 65.47 175.53 68.16 175.92 72.55 176.88 75.75 177.83 78.91 178.91 81.71 180.19 82.79 180.97 85.67 181.1 87.2 180.71 88.03 179.04 88.91 177.01 88.65 175.36 87.57 173.3 86.12 170.32 84.97 167.2 84.13 163.69 83.76 160.69 83.76 157.77 84.06 154.32 84.45 152.59 84 151.12 83.05 150.36 81.14 148.96 79.8 148 79.54 146.16 78.91 144.19 77.72 142.27 76.45 140.62 74.84 139.08 72.81 137.55 70.52 135.84 69.3 135.26 68.09 134.89 67.07 135.06 66.19 135.64 66.19 135.64"/>
  <polygon class="cls-1" points="86.8 7.11 86.59 4.77 83.27 .74 82.25 .44 81.54 1.45 81.65 2.66 80.52 3.68 80.41 5.08 81.73 5.79 83.57 7.11 86.8 7.11 86.8 7.11"/>
</svg>